<?xml version="1.0" encoding="utf-8" standalone="no"?>
<!DOCTYPE svg PUBLIC "-//W3C//DTD SVG 1.1//EN"
  "http://www.w3.org/Graphics/SVG/1.1/DTD/svg11.dtd">
<!-- Created with matplotlib (https://matplotlib.org/) -->
<svg height="288pt" version="1.1" viewBox="0 0 432 288" width="432pt" xmlns="http://www.w3.org/2000/svg" xmlns:xlink="http://www.w3.org/1999/xlink">
 <defs>
  <style type="text/css">
*{stroke-linecap:butt;stroke-linejoin:round;}
  </style>
 </defs>
 <g id="figure_1">
  <g id="patch_1">
   <path d="M 0 288 
L 432 288 
L 432 0 
L 0 0 
z
" style="fill:#ffffff;"/>
  </g>
  <g id="axes_1">
   <g id="patch_2">
    <path d="M 54 252 
L 388.8 252 
L 388.8 34.56 
L 54 34.56 
z
" style="fill:#ffffff;"/>
   </g>
   <g id="matplotlib.axis_1">
    <g id="xtick_1">
     <g id="line2d_1">
      <defs>
       <path d="M 0 0 
L 0 3.5 
" id="mb7bc837b65" style="stroke:#000000;stroke-width:0.8;"/>
      </defs>
      <g>
       <use style="stroke:#000000;stroke-width:0.8;" x="69.218182" xlink:href="#mb7bc837b65" y="252"/>
      </g>
     </g>
     <g id="text_1">
      <!-- 0 -->
      <defs>
       <path d="M 31.78125 66.40625 
Q 24.171875 66.40625 20.328125 58.90625 
Q 16.5 51.421875 16.5 36.375 
Q 16.5 21.390625 20.328125 13.890625 
Q 24.171875 6.390625 31.78125 6.390625 
Q 39.453125 6.390625 43.28125 13.890625 
Q 47.125 21.390625 47.125 36.375 
Q 47.125 51.421875 43.28125 58.90625 
Q 39.453125 66.40625 31.78125 66.40625 
z
M 31.78125 74.21875 
Q 44.046875 74.21875 50.515625 64.515625 
Q 56.984375 54.828125 56.984375 36.375 
Q 56.984375 17.96875 50.515625 8.265625 
Q 44.046875 -1.421875 31.78125 -1.421875 
Q 19.53125 -1.421875 13.0625 8.265625 
Q 6.59375 17.96875 6.59375 36.375 
Q 6.59375 54.828125 13.0625 64.515625 
Q 19.53125 74.21875 31.78125 74.21875 
z
" id="DejaVuSans-48"/>
      </defs>
      <g transform="translate(66.036932 266.598437)scale(0.1 -0.1)">
       <use xlink:href="#DejaVuSans-48"/>
      </g>
     </g>
    </g>
    <g id="xtick_2">
     <g id="line2d_2">
      <g>
       <use style="stroke:#000000;stroke-width:0.8;" x="107.45482" xlink:href="#mb7bc837b65" y="252"/>
      </g>
     </g>
     <g id="text_2">
      <!-- 25 -->
      <defs>
       <path d="M 19.1875 8.296875 
L 53.609375 8.296875 
L 53.609375 0 
L 7.328125 0 
L 7.328125 8.296875 
Q 12.9375 14.109375 22.625 23.890625 
Q 32.328125 33.6875 34.8125 36.53125 
Q 39.546875 41.84375 41.421875 45.53125 
Q 43.3125 49.21875 43.3125 52.78125 
Q 43.3125 58.59375 39.234375 62.25 
Q 35.15625 65.921875 28.609375 65.921875 
Q 23.96875 65.921875 18.8125 64.3125 
Q 13.671875 62.703125 7.8125 59.421875 
L 7.8125 69.390625 
Q 13.765625 71.78125 18.9375 73 
Q 24.125 74.21875 28.421875 74.21875 
Q 39.75 74.21875 46.484375 68.546875 
Q 53.21875 62.890625 53.21875 53.421875 
Q 53.21875 48.921875 51.53125 44.890625 
Q 49.859375 40.875 45.40625 35.40625 
Q 44.1875 33.984375 37.640625 27.21875 
Q 31.109375 20.453125 19.1875 8.296875 
z
" id="DejaVuSans-50"/>
       <path d="M 10.796875 72.90625 
L 49.515625 72.90625 
L 49.515625 64.59375 
L 19.828125 64.59375 
L 19.828125 46.734375 
Q 21.96875 47.46875 24.109375 47.828125 
Q 26.265625 48.1875 28.421875 48.1875 
Q 40.625 48.1875 47.75 41.5 
Q 54.890625 34.8125 54.890625 23.390625 
Q 54.890625 11.625 47.5625 5.09375 
Q 40.234375 -1.421875 26.90625 -1.421875 
Q 22.3125 -1.421875 17.546875 -0.640625 
Q 12.796875 0.140625 7.71875 1.703125 
L 7.71875 11.625 
Q 12.109375 9.234375 16.796875 8.0625 
Q 21.484375 6.890625 26.703125 6.890625 
Q 35.15625 6.890625 40.078125 11.328125 
Q 45.015625 15.765625 45.015625 23.390625 
Q 45.015625 31 40.078125 35.4375 
Q 35.15625 39.890625 26.703125 39.890625 
Q 22.75 39.890625 18.8125 39.015625 
Q 14.890625 38.140625 10.796875 36.28125 
z
" id="DejaVuSans-53"/>
      </defs>
      <g transform="translate(101.09232 266.598437)scale(0.1 -0.1)">
       <use xlink:href="#DejaVuSans-50"/>
       <use x="63.623047" xlink:href="#DejaVuSans-53"/>
      </g>
     </g>
    </g>
    <g id="xtick_3">
     <g id="line2d_3">
      <g>
       <use style="stroke:#000000;stroke-width:0.8;" x="145.691457" xlink:href="#mb7bc837b65" y="252"/>
      </g>
     </g>
     <g id="text_3">
      <!-- 50 -->
      <g transform="translate(139.328957 266.598437)scale(0.1 -0.1)">
       <use xlink:href="#DejaVuSans-53"/>
       <use x="63.623047" xlink:href="#DejaVuSans-48"/>
      </g>
     </g>
    </g>
    <g id="xtick_4">
     <g id="line2d_4">
      <g>
       <use style="stroke:#000000;stroke-width:0.8;" x="183.928095" xlink:href="#mb7bc837b65" y="252"/>
      </g>
     </g>
     <g id="text_4">
      <!-- 75 -->
      <defs>
       <path d="M 8.203125 72.90625 
L 55.078125 72.90625 
L 55.078125 68.703125 
L 28.609375 0 
L 18.3125 0 
L 43.21875 64.59375 
L 8.203125 64.59375 
z
" id="DejaVuSans-55"/>
      </defs>
      <g transform="translate(177.565595 266.598437)scale(0.1 -0.1)">
       <use xlink:href="#DejaVuSans-55"/>
       <use x="63.623047" xlink:href="#DejaVuSans-53"/>
      </g>
     </g>
    </g>
    <g id="xtick_5">
     <g id="line2d_5">
      <g>
       <use style="stroke:#000000;stroke-width:0.8;" x="222.164733" xlink:href="#mb7bc837b65" y="252"/>
      </g>
     </g>
     <g id="text_5">
      <!-- 100 -->
      <defs>
       <path d="M 12.40625 8.296875 
L 28.515625 8.296875 
L 28.515625 63.921875 
L 10.984375 60.40625 
L 10.984375 69.390625 
L 28.421875 72.90625 
L 38.28125 72.90625 
L 38.28125 8.296875 
L 54.390625 8.296875 
L 54.390625 0 
L 12.40625 0 
z
" id="DejaVuSans-49"/>
      </defs>
      <g transform="translate(212.620983 266.598437)scale(0.1 -0.1)">
       <use xlink:href="#DejaVuSans-49"/>
       <use x="63.623047" xlink:href="#DejaVuSans-48"/>
       <use x="127.246094" xlink:href="#DejaVuSans-48"/>
      </g>
     </g>
    </g>
    <g id="xtick_6">
     <g id="line2d_6">
      <g>
       <use style="stroke:#000000;stroke-width:0.8;" x="260.40137" xlink:href="#mb7bc837b65" y="252"/>
      </g>
     </g>
     <g id="text_6">
      <!-- 125 -->
      <g transform="translate(250.85762 266.598437)scale(0.1 -0.1)">
       <use xlink:href="#DejaVuSans-49"/>
       <use x="63.623047" xlink:href="#DejaVuSans-50"/>
       <use x="127.246094" xlink:href="#DejaVuSans-53"/>
      </g>
     </g>
    </g>
    <g id="xtick_7">
     <g id="line2d_7">
      <g>
       <use style="stroke:#000000;stroke-width:0.8;" x="298.638008" xlink:href="#mb7bc837b65" y="252"/>
      </g>
     </g>
     <g id="text_7">
      <!-- 150 -->
      <g transform="translate(289.094258 266.598437)scale(0.1 -0.1)">
       <use xlink:href="#DejaVuSans-49"/>
       <use x="63.623047" xlink:href="#DejaVuSans-53"/>
       <use x="127.246094" xlink:href="#DejaVuSans-48"/>
      </g>
     </g>
    </g>
    <g id="xtick_8">
     <g id="line2d_8">
      <g>
       <use style="stroke:#000000;stroke-width:0.8;" x="336.874646" xlink:href="#mb7bc837b65" y="252"/>
      </g>
     </g>
     <g id="text_8">
      <!-- 175 -->
      <g transform="translate(327.330896 266.598437)scale(0.1 -0.1)">
       <use xlink:href="#DejaVuSans-49"/>
       <use x="63.623047" xlink:href="#DejaVuSans-55"/>
       <use x="127.246094" xlink:href="#DejaVuSans-53"/>
      </g>
     </g>
    </g>
    <g id="xtick_9">
     <g id="line2d_9">
      <g>
       <use style="stroke:#000000;stroke-width:0.8;" x="375.111284" xlink:href="#mb7bc837b65" y="252"/>
      </g>
     </g>
     <g id="text_9">
      <!-- 200 -->
      <g transform="translate(365.567534 266.598437)scale(0.1 -0.1)">
       <use xlink:href="#DejaVuSans-50"/>
       <use x="63.623047" xlink:href="#DejaVuSans-48"/>
       <use x="127.246094" xlink:href="#DejaVuSans-48"/>
      </g>
     </g>
    </g>
    <g id="text_10">
     <!-- Epoch -->
     <defs>
      <path d="M 9.8125 72.90625 
L 55.90625 72.90625 
L 55.90625 64.59375 
L 19.671875 64.59375 
L 19.671875 43.015625 
L 54.390625 43.015625 
L 54.390625 34.71875 
L 19.671875 34.71875 
L 19.671875 8.296875 
L 56.78125 8.296875 
L 56.78125 0 
L 9.8125 0 
z
" id="DejaVuSans-69"/>
      <path d="M 18.109375 8.203125 
L 18.109375 -20.796875 
L 9.078125 -20.796875 
L 9.078125 54.6875 
L 18.109375 54.6875 
L 18.109375 46.390625 
Q 20.953125 51.265625 25.265625 53.625 
Q 29.59375 56 35.59375 56 
Q 45.5625 56 51.78125 48.09375 
Q 58.015625 40.1875 58.015625 27.296875 
Q 58.015625 14.40625 51.78125 6.484375 
Q 45.5625 -1.421875 35.59375 -1.421875 
Q 29.59375 -1.421875 25.265625 0.953125 
Q 20.953125 3.328125 18.109375 8.203125 
z
M 48.6875 27.296875 
Q 48.6875 37.203125 44.609375 42.84375 
Q 40.53125 48.484375 33.40625 48.484375 
Q 26.265625 48.484375 22.1875 42.84375 
Q 18.109375 37.203125 18.109375 27.296875 
Q 18.109375 17.390625 22.1875 11.75 
Q 26.265625 6.109375 33.40625 6.109375 
Q 40.53125 6.109375 44.609375 11.75 
Q 48.6875 17.390625 48.6875 27.296875 
z
" id="DejaVuSans-112"/>
      <path d="M 30.609375 48.390625 
Q 23.390625 48.390625 19.1875 42.75 
Q 14.984375 37.109375 14.984375 27.296875 
Q 14.984375 17.484375 19.15625 11.84375 
Q 23.34375 6.203125 30.609375 6.203125 
Q 37.796875 6.203125 41.984375 11.859375 
Q 46.1875 17.53125 46.1875 27.296875 
Q 46.1875 37.015625 41.984375 42.703125 
Q 37.796875 48.390625 30.609375 48.390625 
z
M 30.609375 56 
Q 42.328125 56 49.015625 48.375 
Q 55.71875 40.765625 55.71875 27.296875 
Q 55.71875 13.875 49.015625 6.21875 
Q 42.328125 -1.421875 30.609375 -1.421875 
Q 18.84375 -1.421875 12.171875 6.21875 
Q 5.515625 13.875 5.515625 27.296875 
Q 5.515625 40.765625 12.171875 48.375 
Q 18.84375 56 30.609375 56 
z
" id="DejaVuSans-111"/>
      <path d="M 48.78125 52.59375 
L 48.78125 44.1875 
Q 44.96875 46.296875 41.140625 47.34375 
Q 37.3125 48.390625 33.40625 48.390625 
Q 24.65625 48.390625 19.8125 42.84375 
Q 14.984375 37.3125 14.984375 27.296875 
Q 14.984375 17.28125 19.8125 11.734375 
Q 24.65625 6.203125 33.40625 6.203125 
Q 37.3125 6.203125 41.140625 7.25 
Q 44.96875 8.296875 48.78125 10.40625 
L 48.78125 2.09375 
Q 45.015625 0.34375 40.984375 -0.53125 
Q 36.96875 -1.421875 32.421875 -1.421875 
Q 20.0625 -1.421875 12.78125 6.34375 
Q 5.515625 14.109375 5.515625 27.296875 
Q 5.515625 40.671875 12.859375 48.328125 
Q 20.21875 56 33.015625 56 
Q 37.15625 56 41.109375 55.140625 
Q 45.0625 54.296875 48.78125 52.59375 
z
" id="DejaVuSans-99"/>
      <path d="M 54.890625 33.015625 
L 54.890625 0 
L 45.90625 0 
L 45.90625 32.71875 
Q 45.90625 40.484375 42.875 44.328125 
Q 39.84375 48.1875 33.796875 48.1875 
Q 26.515625 48.1875 22.3125 43.546875 
Q 18.109375 38.921875 18.109375 30.90625 
L 18.109375 0 
L 9.078125 0 
L 9.078125 75.984375 
L 18.109375 75.984375 
L 18.109375 46.1875 
Q 21.34375 51.125 25.703125 53.5625 
Q 30.078125 56 35.796875 56 
Q 45.21875 56 50.046875 50.171875 
Q 54.890625 44.34375 54.890625 33.015625 
z
" id="DejaVuSans-104"/>
     </defs>
     <g transform="translate(206.089063 280.276563)scale(0.1 -0.1)">
      <use xlink:href="#DejaVuSans-69"/>
      <use x="63.183594" xlink:href="#DejaVuSans-112"/>
      <use x="126.660156" xlink:href="#DejaVuSans-111"/>
      <use x="187.841797" xlink:href="#DejaVuSans-99"/>
      <use x="242.822266" xlink:href="#DejaVuSans-104"/>
     </g>
    </g>
   </g>
   <g id="matplotlib.axis_2">
    <g id="ytick_1">
     <g id="line2d_10">
      <defs>
       <path d="M 0 0 
L -3.5 0 
" id="mb16fbf6872" style="stroke:#000000;stroke-width:0.8;"/>
      </defs>
      <g>
       <use style="stroke:#000000;stroke-width:0.8;" x="54" xlink:href="#mb16fbf6872" y="235.250412"/>
      </g>
     </g>
     <g id="text_11">
      <!-- 0.1 -->
      <defs>
       <path d="M 10.6875 12.40625 
L 21 12.40625 
L 21 0 
L 10.6875 0 
z
" id="DejaVuSans-46"/>
      </defs>
      <g transform="translate(31.096875 239.049631)scale(0.1 -0.1)">
       <use xlink:href="#DejaVuSans-48"/>
       <use x="63.623047" xlink:href="#DejaVuSans-46"/>
       <use x="95.410156" xlink:href="#DejaVuSans-49"/>
      </g>
     </g>
    </g>
    <g id="ytick_2">
     <g id="line2d_11">
      <g>
       <use style="stroke:#000000;stroke-width:0.8;" x="54" xlink:href="#mb16fbf6872" y="203.819513"/>
      </g>
     </g>
     <g id="text_12">
      <!-- 0.2 -->
      <g transform="translate(31.096875 207.618732)scale(0.1 -0.1)">
       <use xlink:href="#DejaVuSans-48"/>
       <use x="63.623047" xlink:href="#DejaVuSans-46"/>
       <use x="95.410156" xlink:href="#DejaVuSans-50"/>
      </g>
     </g>
    </g>
    <g id="ytick_3">
     <g id="line2d_12">
      <g>
       <use style="stroke:#000000;stroke-width:0.8;" x="54" xlink:href="#mb16fbf6872" y="172.388615"/>
      </g>
     </g>
     <g id="text_13">
      <!-- 0.3 -->
      <defs>
       <path d="M 40.578125 39.3125 
Q 47.65625 37.796875 51.625 33 
Q 55.609375 28.21875 55.609375 21.1875 
Q 55.609375 10.40625 48.1875 4.484375 
Q 40.765625 -1.421875 27.09375 -1.421875 
Q 22.515625 -1.421875 17.65625 -0.515625 
Q 12.796875 0.390625 7.625 2.203125 
L 7.625 11.71875 
Q 11.71875 9.328125 16.59375 8.109375 
Q 21.484375 6.890625 26.8125 6.890625 
Q 36.078125 6.890625 40.9375 10.546875 
Q 45.796875 14.203125 45.796875 21.1875 
Q 45.796875 27.640625 41.28125 31.265625 
Q 36.765625 34.90625 28.71875 34.90625 
L 20.21875 34.90625 
L 20.21875 43.015625 
L 29.109375 43.015625 
Q 36.375 43.015625 40.234375 45.921875 
Q 44.09375 48.828125 44.09375 54.296875 
Q 44.09375 59.90625 40.109375 62.90625 
Q 36.140625 65.921875 28.71875 65.921875 
Q 24.65625 65.921875 20.015625 65.03125 
Q 15.375 64.15625 9.8125 62.3125 
L 9.8125 71.09375 
Q 15.4375 72.65625 20.34375 73.4375 
Q 25.25 74.21875 29.59375 74.21875 
Q 40.828125 74.21875 47.359375 69.109375 
Q 53.90625 64.015625 53.90625 55.328125 
Q 53.90625 49.265625 50.4375 45.09375 
Q 46.96875 40.921875 40.578125 39.3125 
z
" id="DejaVuSans-51"/>
      </defs>
      <g transform="translate(31.096875 176.187834)scale(0.1 -0.1)">
       <use xlink:href="#DejaVuSans-48"/>
       <use x="63.623047" xlink:href="#DejaVuSans-46"/>
       <use x="95.410156" xlink:href="#DejaVuSans-51"/>
      </g>
     </g>
    </g>
    <g id="ytick_4">
     <g id="line2d_13">
      <g>
       <use style="stroke:#000000;stroke-width:0.8;" x="54" xlink:href="#mb16fbf6872" y="140.957717"/>
      </g>
     </g>
     <g id="text_14">
      <!-- 0.4 -->
      <defs>
       <path d="M 37.796875 64.3125 
L 12.890625 25.390625 
L 37.796875 25.390625 
z
M 35.203125 72.90625 
L 47.609375 72.90625 
L 47.609375 25.390625 
L 58.015625 25.390625 
L 58.015625 17.1875 
L 47.609375 17.1875 
L 47.609375 0 
L 37.796875 0 
L 37.796875 17.1875 
L 4.890625 17.1875 
L 4.890625 26.703125 
z
" id="DejaVuSans-52"/>
      </defs>
      <g transform="translate(31.096875 144.756935)scale(0.1 -0.1)">
       <use xlink:href="#DejaVuSans-48"/>
       <use x="63.623047" xlink:href="#DejaVuSans-46"/>
       <use x="95.410156" xlink:href="#DejaVuSans-52"/>
      </g>
     </g>
    </g>
    <g id="ytick_5">
     <g id="line2d_14">
      <g>
       <use style="stroke:#000000;stroke-width:0.8;" x="54" xlink:href="#mb16fbf6872" y="109.526818"/>
      </g>
     </g>
     <g id="text_15">
      <!-- 0.5 -->
      <g transform="translate(31.096875 113.326037)scale(0.1 -0.1)">
       <use xlink:href="#DejaVuSans-48"/>
       <use x="63.623047" xlink:href="#DejaVuSans-46"/>
       <use x="95.410156" xlink:href="#DejaVuSans-53"/>
      </g>
     </g>
    </g>
    <g id="ytick_6">
     <g id="line2d_15">
      <g>
       <use style="stroke:#000000;stroke-width:0.8;" x="54" xlink:href="#mb16fbf6872" y="78.09592"/>
      </g>
     </g>
     <g id="text_16">
      <!-- 0.6 -->
      <defs>
       <path d="M 33.015625 40.375 
Q 26.375 40.375 22.484375 35.828125 
Q 18.609375 31.296875 18.609375 23.390625 
Q 18.609375 15.53125 22.484375 10.953125 
Q 26.375 6.390625 33.015625 6.390625 
Q 39.65625 6.390625 43.53125 10.953125 
Q 47.40625 15.53125 47.40625 23.390625 
Q 47.40625 31.296875 43.53125 35.828125 
Q 39.65625 40.375 33.015625 40.375 
z
M 52.59375 71.296875 
L 52.59375 62.3125 
Q 48.875 64.0625 45.09375 64.984375 
Q 41.3125 65.921875 37.59375 65.921875 
Q 27.828125 65.921875 22.671875 59.328125 
Q 17.53125 52.734375 16.796875 39.40625 
Q 19.671875 43.65625 24.015625 45.921875 
Q 28.375 48.1875 33.59375 48.1875 
Q 44.578125 48.1875 50.953125 41.515625 
Q 57.328125 34.859375 57.328125 23.390625 
Q 57.328125 12.15625 50.6875 5.359375 
Q 44.046875 -1.421875 33.015625 -1.421875 
Q 20.359375 -1.421875 13.671875 8.265625 
Q 6.984375 17.96875 6.984375 36.375 
Q 6.984375 53.65625 15.1875 63.9375 
Q 23.390625 74.21875 37.203125 74.21875 
Q 40.921875 74.21875 44.703125 73.484375 
Q 48.484375 72.75 52.59375 71.296875 
z
" id="DejaVuSans-54"/>
      </defs>
      <g transform="translate(31.096875 81.895139)scale(0.1 -0.1)">
       <use xlink:href="#DejaVuSans-48"/>
       <use x="63.623047" xlink:href="#DejaVuSans-46"/>
       <use x="95.410156" xlink:href="#DejaVuSans-54"/>
      </g>
     </g>
    </g>
    <g id="ytick_7">
     <g id="line2d_16">
      <g>
       <use style="stroke:#000000;stroke-width:0.8;" x="54" xlink:href="#mb16fbf6872" y="46.665022"/>
      </g>
     </g>
     <g id="text_17">
      <!-- 0.7 -->
      <g transform="translate(31.096875 50.46424)scale(0.1 -0.1)">
       <use xlink:href="#DejaVuSans-48"/>
       <use x="63.623047" xlink:href="#DejaVuSans-46"/>
       <use x="95.410156" xlink:href="#DejaVuSans-55"/>
      </g>
     </g>
    </g>
    <g id="text_18">
     <!-- MSE Loss -->
     <defs>
      <path d="M 9.8125 72.90625 
L 24.515625 72.90625 
L 43.109375 23.296875 
L 61.8125 72.90625 
L 76.515625 72.90625 
L 76.515625 0 
L 66.890625 0 
L 66.890625 64.015625 
L 48.09375 14.015625 
L 38.1875 14.015625 
L 19.390625 64.015625 
L 19.390625 0 
L 9.8125 0 
z
" id="DejaVuSans-77"/>
      <path d="M 53.515625 70.515625 
L 53.515625 60.890625 
Q 47.90625 63.578125 42.921875 64.890625 
Q 37.9375 66.21875 33.296875 66.21875 
Q 25.25 66.21875 20.875 63.09375 
Q 16.5 59.96875 16.5 54.203125 
Q 16.5 49.359375 19.40625 46.890625 
Q 22.3125 44.4375 30.421875 42.921875 
L 36.375 41.703125 
Q 47.40625 39.59375 52.65625 34.296875 
Q 57.90625 29 57.90625 20.125 
Q 57.90625 9.515625 50.796875 4.046875 
Q 43.703125 -1.421875 29.984375 -1.421875 
Q 24.8125 -1.421875 18.96875 -0.25 
Q 13.140625 0.921875 6.890625 3.21875 
L 6.890625 13.375 
Q 12.890625 10.015625 18.65625 8.296875 
Q 24.421875 6.59375 29.984375 6.59375 
Q 38.421875 6.59375 43.015625 9.90625 
Q 47.609375 13.234375 47.609375 19.390625 
Q 47.609375 24.75 44.3125 27.78125 
Q 41.015625 30.8125 33.5 32.328125 
L 27.484375 33.5 
Q 16.453125 35.6875 11.515625 40.375 
Q 6.59375 45.0625 6.59375 53.421875 
Q 6.59375 63.09375 13.40625 68.65625 
Q 20.21875 74.21875 32.171875 74.21875 
Q 37.3125 74.21875 42.625 73.28125 
Q 47.953125 72.359375 53.515625 70.515625 
z
" id="DejaVuSans-83"/>
      <path id="DejaVuSans-32"/>
      <path d="M 9.8125 72.90625 
L 19.671875 72.90625 
L 19.671875 8.296875 
L 55.171875 8.296875 
L 55.171875 0 
L 9.8125 0 
z
" id="DejaVuSans-76"/>
      <path d="M 44.28125 53.078125 
L 44.28125 44.578125 
Q 40.484375 46.53125 36.375 47.5 
Q 32.28125 48.484375 27.875 48.484375 
Q 21.1875 48.484375 17.84375 46.4375 
Q 14.5 44.390625 14.5 40.28125 
Q 14.5 37.15625 16.890625 35.375 
Q 19.28125 33.59375 26.515625 31.984375 
L 29.59375 31.296875 
Q 39.15625 29.25 43.1875 25.515625 
Q 47.21875 21.78125 47.21875 15.09375 
Q 47.21875 7.46875 41.1875 3.015625 
Q 35.15625 -1.421875 24.609375 -1.421875 
Q 20.21875 -1.421875 15.453125 -0.5625 
Q 10.6875 0.296875 5.421875 2 
L 5.421875 11.28125 
Q 10.40625 8.6875 15.234375 7.390625 
Q 20.0625 6.109375 24.8125 6.109375 
Q 31.15625 6.109375 34.5625 8.28125 
Q 37.984375 10.453125 37.984375 14.40625 
Q 37.984375 18.0625 35.515625 20.015625 
Q 33.0625 21.96875 24.703125 23.78125 
L 21.578125 24.515625 
Q 13.234375 26.265625 9.515625 29.90625 
Q 5.8125 33.546875 5.8125 39.890625 
Q 5.8125 47.609375 11.28125 51.796875 
Q 16.75 56 26.8125 56 
Q 31.78125 56 36.171875 55.265625 
Q 40.578125 54.546875 44.28125 53.078125 
z
" id="DejaVuSans-115"/>
     </defs>
     <g transform="translate(25.017187 166.570625)rotate(-90)scale(0.1 -0.1)">
      <use xlink:href="#DejaVuSans-77"/>
      <use x="86.279297" xlink:href="#DejaVuSans-83"/>
      <use x="149.755859" xlink:href="#DejaVuSans-69"/>
      <use x="212.939453" xlink:href="#DejaVuSans-32"/>
      <use x="244.726562" xlink:href="#DejaVuSans-76"/>
      <use x="300.423828" xlink:href="#DejaVuSans-111"/>
      <use x="361.605469" xlink:href="#DejaVuSans-115"/>
      <use x="413.705078" xlink:href="#DejaVuSans-115"/>
     </g>
    </g>
   </g>
   <g id="line2d_17">
    <path clip-path="url(#p0dc6e3ad55)" d="M 69.218182 44.443636 
L 70.747647 163.331354 
L 72.277113 164.822633 
L 73.806578 165.698095 
L 75.336044 171.087227 
L 76.865509 173.907533 
L 78.394975 177.928512 
L 79.92444 184.805358 
L 81.453906 192.203757 
L 82.983371 193.617411 
L 84.512837 200.017465 
L 86.042302 213.565493 
L 87.571768 217.145963 
L 89.101233 216.297925 
L 90.630699 224.181124 
L 92.160164 224.46008 
L 93.68963 236.294362 
L 95.219095 240.441144 
L 96.748561 241.127105 
L 99.807492 241.915939 
L 102.866423 241.825448 
L 107.45482 241.940788 
L 110.513751 241.919097 
L 115.102147 241.979861 
L 116.631613 242.050865 
L 119.690544 241.980394 
L 121.220009 241.900452 
L 125.808406 242.00822 
L 130.396802 241.861489 
L 133.455733 241.973661 
L 134.985199 241.881835 
L 136.514664 241.960748 
L 138.04413 241.891817 
L 139.573595 241.994337 
L 141.103061 241.833362 
L 144.161992 242.008248 
L 151.809319 241.807763 
L 153.338785 241.977444 
L 159.456647 241.882545 
L 160.986112 241.988351 
L 162.515578 241.914044 
L 165.574509 242.059536 
L 167.103974 241.852948 
L 170.162905 242.061171 
L 171.692371 241.96694 
L 173.221836 242.06128 
L 174.751302 241.929289 
L 176.280767 241.93404 
L 177.810233 242.091289 
L 180.869164 241.870122 
L 182.39863 242.116364 
L 185.457561 241.942327 
L 186.987026 242.060644 
L 188.516492 241.831783 
L 190.045957 241.970739 
L 193.104888 241.88612 
L 194.634354 241.988254 
L 196.163819 241.804001 
L 199.22275 241.999328 
L 200.752216 241.911817 
L 205.340612 241.993708 
L 206.870078 241.822517 
L 209.929009 241.965966 
L 214.517405 241.944106 
L 217.576336 241.986571 
L 220.635267 242.022845 
L 222.164733 241.853583 
L 225.223664 241.976087 
L 226.753129 241.81106 
L 228.282595 241.993223 
L 231.341526 241.880523 
L 235.929922 241.978094 
L 238.988853 241.889391 
L 243.57725 242.007873 
L 245.106715 241.705506 
L 248.165646 241.981894 
L 249.695112 241.945246 
L 251.224577 242.061734 
L 252.754043 241.93868 
L 260.40137 242.038582 
L 263.460302 241.962222 
L 268.048698 241.987242 
L 269.578164 241.792402 
L 271.107629 241.967111 
L 272.637095 242.027979 
L 275.696026 241.802303 
L 280.284422 241.955417 
L 281.813888 241.838005 
L 284.872819 241.8772 
L 286.402284 241.87163 
L 287.93175 242.023669 
L 290.990681 241.906097 
L 292.520146 241.821469 
L 295.579077 241.935098 
L 304.75587 241.950005 
L 307.814801 241.995707 
L 309.344267 241.946734 
L 310.873732 242.012921 
L 313.932663 241.927159 
L 315.462129 241.961269 
L 318.52106 241.852556 
L 320.050525 241.98436 
L 323.109456 241.849404 
L 324.638922 241.992468 
L 329.227318 241.861 
L 332.286249 241.958538 
L 336.874646 241.940317 
L 338.404111 242.077652 
L 339.933577 241.892653 
L 342.992508 242.057794 
L 344.521974 241.976721 
L 346.051439 242.099501 
L 347.580905 241.968389 
L 349.11037 242.012267 
L 352.169301 241.854935 
L 355.228232 242.106667 
L 356.757698 241.90209 
L 361.346094 241.9955 
L 364.405025 241.903472 
L 368.993422 242.066405 
L 373.581818 241.945681 
L 373.581818 241.945681 
" style="fill:none;stroke:#1f77b4;stroke-linecap:square;stroke-width:1.5;"/>
   </g>
   <g id="line2d_18">
    <path clip-path="url(#p0dc6e3ad55)" d="M 69.218182 157.214184 
L 70.747647 154.832614 
L 72.277113 157.02995 
L 73.806578 168.43177 
L 75.336044 166.195055 
L 76.865509 175.877768 
L 78.394975 215.516496 
L 79.92444 225.229416 
L 81.453906 120.446549 
L 82.983371 205.903923 
L 84.512837 211.968422 
L 86.042302 231.48303 
L 87.571768 229.85875 
L 89.101233 223.059061 
L 90.630699 202.265535 
L 92.160164 211.93947 
L 93.68963 236.167015 
L 95.219095 235.130972 
L 96.748561 234.947665 
L 98.278026 235.64987 
L 99.807492 233.721362 
L 101.336958 235.10271 
L 102.866423 233.591544 
L 104.395889 233.35211 
L 105.925354 235.449549 
L 107.45482 235.416274 
L 108.984285 235.971392 
L 110.513751 237.048191 
L 112.043216 235.226343 
L 113.572682 236.42469 
L 115.102147 235.240003 
L 116.631613 235.77244 
L 118.161078 234.235636 
L 119.690544 236.735209 
L 121.220009 236.419744 
L 122.749475 235.660335 
L 124.27894 236.315285 
L 125.808406 235.450964 
L 127.337871 236.62871 
L 128.867337 234.042748 
L 130.396802 234.768442 
L 131.926268 234.037364 
L 133.455733 235.732915 
L 134.985199 233.545854 
L 136.514664 235.197194 
L 138.04413 234.871898 
L 139.573595 237.016881 
L 141.103061 234.218552 
L 142.632526 234.84684 
L 144.161992 237.166576 
L 145.691457 237.54912 
L 147.220923 234.017206 
L 148.750388 237.212147 
L 151.809319 234.881992 
L 153.338785 235.491253 
L 154.86825 237.191379 
L 156.397716 235.265322 
L 157.927181 238.748852 
L 159.456647 235.059727 
L 160.986112 232.510163 
L 162.515578 235.384824 
L 164.045043 237.742605 
L 165.574509 237.396003 
L 167.103974 235.936329 
L 168.63344 233.895576 
L 170.162905 237.699373 
L 171.692371 236.625113 
L 173.221836 236.112728 
L 174.751302 236.023638 
L 176.280767 236.739902 
L 177.810233 236.814639 
L 179.339698 234.203016 
L 180.869164 236.855345 
L 182.39863 234.914444 
L 183.928095 235.489308 
L 185.457561 236.812909 
L 186.987026 237.430155 
L 188.516492 234.612701 
L 190.045957 236.137835 
L 191.575423 231.360786 
L 193.104888 237.117358 
L 194.634354 235.685818 
L 196.163819 235.103552 
L 197.693285 235.256129 
L 199.22275 237.900449 
L 200.752216 237.637489 
L 202.281681 236.459134 
L 203.811147 237.044941 
L 205.340612 236.192564 
L 206.870078 234.479146 
L 208.399543 235.068481 
L 209.929009 234.703873 
L 211.458474 236.670068 
L 212.98794 234.893112 
L 214.517405 236.948801 
L 216.046871 237.212407 
L 217.576336 236.068483 
L 219.105802 235.525268 
L 220.635267 233.852803 
L 222.164733 234.696285 
L 223.694198 237.65771 
L 225.223664 235.046208 
L 226.753129 237.191911 
L 229.81206 236.524782 
L 231.341526 237.060236 
L 232.870991 234.004053 
L 234.400457 237.035849 
L 235.929922 234.214555 
L 237.459388 235.40776 
L 238.988853 237.308817 
L 240.518319 233.257363 
L 242.047784 231.497279 
L 243.57725 233.648168 
L 245.106715 233.014175 
L 246.636181 236.006552 
L 248.165646 234.83357 
L 249.695112 236.393659 
L 251.224577 234.226002 
L 252.754043 235.431903 
L 254.283508 231.489685 
L 255.812974 235.84715 
L 257.342439 234.899979 
L 258.871905 238.470372 
L 260.40137 237.261663 
L 261.930836 233.685427 
L 263.460302 235.404228 
L 264.989767 231.529852 
L 266.519233 236.256663 
L 268.048698 235.659273 
L 269.578164 233.375349 
L 271.107629 236.656504 
L 274.16656 234.892138 
L 275.696026 236.430506 
L 277.225491 234.742707 
L 278.754957 235.407132 
L 280.284422 234.981194 
L 281.813888 230.606654 
L 283.343353 234.911911 
L 284.872819 235.738298 
L 287.93175 237.03793 
L 289.461215 237.367687 
L 290.990681 235.710706 
L 292.520146 238.0617 
L 294.049612 233.837843 
L 295.579077 235.953517 
L 297.108543 234.736198 
L 298.638008 237.811765 
L 300.167474 235.917009 
L 301.696939 233.75056 
L 303.226405 237.115462 
L 304.75587 235.861609 
L 306.285336 234.307493 
L 307.814801 234.203563 
L 309.344267 234.998489 
L 310.873732 236.521746 
L 312.403198 237.57816 
L 313.932663 236.014711 
L 315.462129 236.44902 
L 316.991594 236.209663 
L 318.52106 236.53416 
L 320.050525 235.215407 
L 321.579991 235.266532 
L 323.109456 236.773009 
L 324.638922 237.472537 
L 326.168387 236.655344 
L 327.697853 238.198307 
L 330.756784 234.432828 
L 332.286249 237.044283 
L 333.815715 233.904732 
L 335.34518 235.048632 
L 336.874646 234.493624 
L 338.404111 236.145351 
L 339.933577 234.913487 
L 341.463042 234.751077 
L 342.992508 236.098302 
L 344.521974 236.507491 
L 346.051439 235.183924 
L 347.580905 234.139186 
L 349.11037 234.855951 
L 350.639836 238.640887 
L 352.169301 234.117269 
L 353.698767 233.568004 
L 355.228232 237.399356 
L 356.757698 236.811832 
L 358.287163 235.012968 
L 361.346094 238.263544 
L 362.87556 233.830804 
L 364.405025 235.388769 
L 365.934491 236.356318 
L 367.463956 236.058344 
L 368.993422 234.284141 
L 370.522887 234.434022 
L 372.052353 235.960552 
L 373.581818 236.164145 
L 373.581818 236.164145 
" style="fill:none;stroke:#ff7f0e;stroke-linecap:square;stroke-width:1.5;"/>
   </g>
   <g id="patch_3">
    <path d="M 54 252 
L 54 34.56 
" style="fill:none;stroke:#000000;stroke-linecap:square;stroke-linejoin:miter;stroke-width:0.8;"/>
   </g>
   <g id="patch_4">
    <path d="M 388.8 252 
L 388.8 34.56 
" style="fill:none;stroke:#000000;stroke-linecap:square;stroke-linejoin:miter;stroke-width:0.8;"/>
   </g>
   <g id="patch_5">
    <path d="M 54 252 
L 388.8 252 
" style="fill:none;stroke:#000000;stroke-linecap:square;stroke-linejoin:miter;stroke-width:0.8;"/>
   </g>
   <g id="patch_6">
    <path d="M 54 34.56 
L 388.8 34.56 
" style="fill:none;stroke:#000000;stroke-linecap:square;stroke-linejoin:miter;stroke-width:0.8;"/>
   </g>
  </g>
 </g>
 <defs>
  <clipPath id="p0dc6e3ad55">
   <rect height="217.44" width="334.8" x="54" y="34.56"/>
  </clipPath>
 </defs>
</svg>
